General
      Complete name : White.Men.Can't.Jump.1992.DVDRip.H264.AAC.Gopo.mp4
      Format : MPEG-4
      Format profile : Base Media
      Codec ID : isom
      File size : 1.38 GiB
      Duration : 1h 50mn
      Overall bit rate : 1 776 Kbps
      Encoded date : UTC 2010-03-04 21:34:46
      Tagged date : UTC 2010-03-04 21:34:46
   Video #1
      ID : 1
      Format : AVC
      Format/Info : Advanced Video Codec
      Format profile : High@L4.1
      Format settings, CABAC : Yes
      Format settings, ReFrames : 6 frames
      Codec ID : avc1
      Codec ID/Info : Advanced Video Coding
      Duration : 1h 50mn
      Bit rate mode : Variable
      Bit rate : 1 472 Kbps
      Maximum bit rate : 4 493 Kbps
      Width : 720 pixels
      Height : 384 pixels
      Display aspect ratio : 1.875
      Frame rate mode : Constant
      Frame rate : 25.000 fps
      Resolution : 24 bits
      Colorimetry : 4:2:0
      Scan type : Progressive
      Bits/(Pixel*Frame) : 0.213
      Stream size : 1.14 GiB (83%)
      Writing library : x264 core 84 r1416 fcf70c2
      Encoding settings : cabac=1 / ref=6 / deblock=1:-3:-1 / analyse=0x3:0x133 / me=umh / subme=7 / psy=1 / psy_rd=1.0:0.1 / mixed_ref=1 / me_range=32 / chroma_me=1 / trellis=2 / 8x8dct=1 / cqm=0 / deadzone=21,11 / fast_pskip=0 / chroma_qp_offset=-3 / threads=2 / sliced_threads=0 / nr=0 / decimate=1 / mbaff=0 / constrained_intra=0 / bframes=6 / b_pyramid=2 / b_adapt=2 / b_bias=0 / direct=1 / wpredb=1 / wpredp=2 / keyint=250 / keyint_min=25 / scenecut=40 / intra_refresh=0 / rc_lookahead=40 / rc=2pass / mbtree=1 / bitrate=1472 / ratetol=1.0 / qcomp=0.60 / qpmin=10 / qpmax=51 / qpstep=4 / cplxblur=20.0 / qblur=0.5 / vbv_maxrate=40000 / vbv_bufsize=40000 / ip_ratio=1.40 / aq=1:1.00
      Encoded date : UTC 2010-03-04 11:04:51
      Tagged date : UTC 2010-03-04 21:37:24
   Audio #2
      ID : 2
      Format : AAC
      Format/Info : Advanced Audio Codec
      Format version : Version 4
      Format profile : LC
      Format settings, SBR : No
      Codec ID : 40
      Duration : 1h 50mn
      Bit rate mode : Variable
      Bit rate : 300 Kbps
      Maximum bit rate : 332 Kbps
      Channel(s) : 2 channels
      Channel positions : L R
      Sampling rate : 48.0 KHz
      Resolution : 16 bits
      Stream size : 238 MiB (17%)
      Encoded date : UTC 2010-03-04 21:36:45
      Tagged date : UTC 2010-03-04 21:37:24
	Sample : YES
	Subtitle : English,Romanian

PLOT
Black and white basketball hustlers join forces to double their chances.Director: Ron Shelton
CASTING 
     
	Wesley Snipes	... 	Sidney Deane
	Woody Harrelson	... 	Billy Hoyle
	Rosie Perez	... 	Gloria Clemente
	Tyra Ferrell	... 	Rhonda Deane
	Cylk Cozart	... 	Robert
	Kadeem Hardison	... 	Junior
	Ernest Harden Jr.	... 	George
	John Marshall Jones	... 	Walter
	Marques Johnson	... 	Raymond
	David Roberson	... 	T.J.
	Kevin Benton	... 	Zeke
	Nigel Miguel	... 	Dwight 'The Flight' McGhee
	Duane Martin	... 	Willie Lewis
	Bill Henderson	... 	The Venice Beach Boys
	Sonny Craver	... 	The Venice Beach Boys

SOURCE: White.Men.Cant.Jump.1992.MULTiSUBS.PAL.DVDR-BANSHEE

Notes: For best performance I suggest you to use KMPlayer(find it with google) for playback
These movies were made especially for PC and they don't play on a PS3.If you want to re-encode for PS3 or test for other devices be my guests.